# xmcd
#
# Track frame offsets: 
#        150
#        15029
#        29502
#        44076
#        57527
#        72385
#        86907
#        100768
#        114438
#        129356
#        142856
#        156697
#        171181
#        184961
#        197142
#        224012
#        237580
#        250923
#        264797
#        278048
#
# Disc length: 3880 seconds
#
# Revision: 3
# Processed by: cddbd v1.5.2PL0 Copyright (c) Steve Scherf et al.
# Submitted via: ExactAudioCopy v0.99pb2
#
DISCID=2d0f2614
DTITLE=Various Artist - Ladies Sing The Blues [CD2]
DYEAR=2003
DGENRE=Blues
TTITLE0=Peggy Lee - Blues In The Night
TTITLE1=Ethel Waters - Sweet Georgia Brown
TTITLE2=Ma Rainey - Toad Frog Blues
TTITLE3=Rosetta Howard - Rosetta Blues
TTITLE4=Billie Holiday - Lover Man
TTITLE5=Mildred Bailey - Rockin' Chair
TTITLE6=Ella Fitzgerald - Sugarfoot Rag
TTITLE7=Bessie Smith - Dyin' By The Hour
TTITLE8=Peggy Lee - How Long Has This Been Going On?
TTITLE9=Bessie Smith - Kitchen Man
TTITLE10=Mildred Bailey - Junk Man
TTITLE11=Ivie Anderson with Duke Ellington and His Orchestra - Shoe Shin
TTITLE11=e Boy
TTITLE12=Ida Cox - Take Him Off My Mind
TTITLE13=Anita O'Day - I Can't Give You Anything But Love
TTITLE14=Lena Horne - Frankie And Johnny
TTITLE15=Bessie Smith - Nobody Knows You When You're Down And Out
TTITLE16=Lena Horne - Mad About The Boy
TTITLE17=Ada Brown - Break O'Day Blues
TTITLE18=Sippie Wallace - I'm A Mighty Tight Woman
TTITLE19=Ella Fitzgerald - I Got It Bad And That Ain't Good
EXTD=
EXTT0=
EXTT1=
EXTT2=
EXTT3=
EXTT4=
EXTT5=
EXTT6=
EXTT7=
EXTT8=
EXTT9=
EXTT10=
EXTT11=
EXTT12=
EXTT13=
EXTT14=
EXTT15=
EXTT16=
EXTT17=
EXTT18=
EXTT19=
PLAYORDER=
